PathFileType	4	(X/Y/Z)	Patient4_TMGait_0pt2_01_right_12.trc.trc
DataRate	CameraRate	NumFrames	NumMarkers	Units	OrigDataRate	OrigDataStartFrame	OrigNumFrames
40.579710144928	40.579710144928	4	33	mm	40.579710144928	18	       141
Frame#	Time	Sacral			L.Shoulder			Chest			R.Shoulder			Neck			R.ASIS			L.ASIS			R.Thigh.Superior			R.Thigh.Lateral			R.Thigh.Inferior			R.Patella			L.Thigh.Superior			L.Thigh.Lateral			L.Thigh.Inferior			L.Patella			L.Shank.Superior			L.Shank.Lateral			L.Shank.Inferior			R.Shank.Superior			R.Shank.Lateral			R.Shank.Inferior			R.Heel			R.Midfoot.Superior			R.Midfoot.Lateral			R.Toe			L.Heel			L.Midfoot.Lateral			L.Midfoot.Superior			L.Toe			L.Elbow			L.Wrist			R.Elbow			R.Wrist			
		X1	Y1	Z1	X2	Y2	Z2	X3	Y3	Z3	X4	Y4	Z4	X5	Y5	Z5	X6	Y6	Z6	X7	Y7	Z7	X8	Y8	Z8	X9	Y9	Z9	X10	Y10	Z10	X11	Y11	Z11	X12	Y12	Z12	X13	Y13	Z13	X14	Y14	Z14	X15	Y15	Z15	X16	Y16	Z16	X17	Y17	Z17	X18	Y18	Z18	X19	Y19	Z19	X20	Y20	Z20	X21	Y21	Z21	X22	Y22	Z22	X23	Y23	Z23	X24	Y24	Z24	X25	Y25	Z25	X26	Y26	Z26	X27	Y27	Z27	X28	Y28	Z28	X29	Y29	Z29	X30	Y30	Z30	X31	Y31	Z31	X32	Y32	Z32	X33	Y33	Z33	

18	26.228928571429	793.341442306947	1015.933395113595	398.379564064853	1046.044342266486	1436.673019198293	274.129610973452	1099.493558167075	1356.559027962144	451.501759763775	980.055248339096	1429.265518131243	603.340278229343	992.615782482377	1494.179287051935	427.641351125104	993.272219661568	943.158334539626	560.742912461218	1033.799145250653	958.710191175318	288.354921637284	1070.250375065797	770.484562980883	534.516299673660	1018.256721087914	651.966533467630	603.629028399769	1108.012642501054	608.846542267221	529.209902269245	1130.244253768279	512.965303642356	552.051838947315	1055.001233844310	738.229387196057	332.631889138379	968.116671307947	624.096884679853	261.175874499591	1029.712627416155	545.952833700348	343.433480352824	1022.043613206617	476.506392226399	353.698331214022	987.313787282334	406.241747202384	342.393348645615	893.003304477542	299.695089097515	285.022542382556	920.641496250794	186.999896174588	364.737524948311	1085.555794993818	426.899360210929	563.933370289419	995.263501952698	346.840520492521	630.185272494560	1027.402143255889	241.767433499005	583.879552458644	875.516521057961	98.490065178640	561.295617417318	1047.650401058951	124.421751269204	602.120763059538	954.260219903246	74.805069094154	635.164648404277	1154.384920490940	58.557977932352	629.554788825332	774.897323092216	39.002140183840	398.716478761391	852.690972193511	36.146561290849	321.603556216885	936.324727488021	95.911977086213	353.225183080526	1064.806675569189	40.722626872125	329.108005321098	1153.171955390076	1128.023836669057	114.586348923466	1387.825433518940	1035.273098519595	179.221606448812	815.788129073543	1109.750519761170	669.552861206854	789.276144767083	849.380934705137	670.227256131164	
19	26.253571428571	793.898285020205	1016.906075460239	399.206107314261	1050.201973521759	1436.385867610717	277.803990679217	1100.166777494876	1356.939774588908	456.451376357336	978.297424521106	1431.034667901691	605.772131534604	994.248674384952	1494.665288836932	430.265792804123	990.940352426606	943.962963745237	565.544915930111	1035.868582245454	958.685963874068	293.636195052250	1066.141268690218	769.896483772227	540.530436036252	1011.794333810863	652.012377050583	608.509451421437	1101.393840749671	608.795481105420	534.396744673853	1124.008945332595	516.555696107152	556.214393118682	1053.185283008473	737.274866793534	337.509121157853	965.603832638501	624.749533908673	263.401060844664	1024.699636956827	545.370073212248	345.977655829039	1015.758568768616	476.357810766215	355.649622559808	981.568648788974	406.533136453595	343.685897237138	887.629204978163	299.999322987790	285.687035986345	915.373667717312	187.107367401290	365.207472750572	1087.038588585833	428.468189454832	568.638077779050	1005.066791251170	339.946187081526	636.589441999283	1046.022061609893	237.325372614604	589.304492553739	905.356295760420	80.259343378723	568.915804816795	1077.783306628147	119.615349585728	606.577110367036	988.133425296571	61.624076273194	640.917924547273	1191.340025251928	61.692822503297	631.134682934869	769.886143381496	38.856099630560	398.689591135023	847.669077719300	36.048572487340	321.572312964567	931.282580010336	95.883826880349	353.294781906240	1059.816983450438	40.773174750396	329.148921214953	1164.105308693821	1130.402379903267	120.263370100364	1403.216252495064	1054.026662170987	187.856846293005	809.160928665792	1114.062743198117	668.714594321727	782.299875473668	853.880941714734	669.104213414600	
20	26.278214285714	794.907290313947	1017.137497523744	400.817210026104	1053.801373367841	1435.651458678647	281.921555062563	1100.884541388451	1356.915565717758	461.643096173266	976.963637885389	1432.152344614243	608.780494561020	995.731306733195	1494.654719025889	433.421891271809	989.473981896827	944.042206752632	570.452759583222	1038.114639125543	958.292224372992	299.075899454873	1062.762306775484	768.281052765816	546.569845199956	1005.788987003190	651.015756257089	613.240997588189	1095.303975647642	607.692170874509	539.464937610349	1117.576889624774	518.769779489167	560.047643986296	1052.105028729971	736.074418336732	342.298323705520	963.891700216478	625.005714398194	265.888832948743	1020.783423451023	544.484839045070	348.633068466464	1010.680319806787	475.834505611632	357.742714422423	976.768484728956	406.440419761849	345.178874661767	882.898476533711	300.219844731049	286.506424233385	910.432491964744	187.035467514347	365.750520894816	1087.699850600131	429.123235382235	572.921550465786	1013.519144753695	333.478866676280	642.480915410737	1061.888892987272	233.392225576076	594.059108747733	931.203905426451	65.624150206373	575.778394677436	1103.676636982357	115.298885040072	610.267630310154	1017.239292705106	50.929622261171	645.874970669243	1222.310411125558	63.671757478573	631.852180681100	764.887792614216	38.728686790221	398.649974670395	842.656017943016	35.949350087173	321.548464620098	926.254708679266	95.845277159126	353.375448712830	1054.833809920304	40.806074794987	329.183745465586	1174.021897642521	1131.803402375836	127.047129199896	1416.385563599484	1071.260589506903	197.314541347262	805.013500078807	1116.762582465393	668.946879964380	779.612307669551	856.531021986507	669.545984772220	
21	26.302857142857	796.362454099151	1016.740642907161	403.287775942129	1056.838593501065	1434.600977946510	286.485453498518	1101.692499207280	1356.585052377737	467.078428547482	976.109915046393	1432.695101800256	612.412608928710	997.078479647752	1494.249125137374	437.144395528797	988.949834019558	943.527226126206	575.474738138727	1040.535294374802	957.632272044094	304.634919057899	1060.425781554881	765.960655842917	552.471387017604	1000.753143396334	649.196278688666	617.670203925738	1090.275251411467	605.830600674514	544.228494359911	1111.565671377440	519.697159796721	563.403967955051	1051.731615418264	734.661361313453	346.924235545824	962.850306467959	624.930615256031	268.644877945891	1017.871001863040	543.339888268180	351.376052958969	1006.717070977457	474.990039100223	359.970421930483	972.834641838881	406.025053971147	346.860535307318	878.741175747739	300.403692708529	287.475265909063	905.787834767199	186.828259317197	366.352101544377	1087.785717565379	428.939555757772	576.584537554443	1020.385648456936	327.721893589233	647.519621009920	1074.467359145762	230.036693471174	597.822265485999	951.903386742095	54.840218998529	581.412030986431	1124.358037273936	111.594701761930	612.896505711934	1040.368734188382	42.986445029390	649.731649322720	1246.307892980536	64.334996736457	631.691080143872	759.902408251347	38.639514567370	398.586912881473	837.656634581556	35.860850069774	321.526632189034	921.249745442951	95.808871649680	353.450057536668	1049.856224153250	40.822100333301	329.209316420664	1182.830740002090	1132.334571592029	134.812902146760	1427.361538879616	1086.790929094923	207.482351133875	803.222966039538	1117.931170150637	670.396634373846	780.742781710608	857.454997332132	671.617636086066	
